<svg width="57" height="68" viewBox="0 0 57 68" fill="none" xmlns="http://www.w3.org/2000/svg">
<path d="M34.8496 0C43.3888 1.5751e-05 51.9462 5.28887 51.9463 14.1035V18.0742C51.946 26.1927 39.7922 30.4744 35.9199 29.9707C31.5363 29.4004 30.7259 27.9554 27.4521 28.459C23.476 29.0707 20.3967 32.0681 19.8945 32.9082C19.3928 33.7479 20.6544 35.1092 22.6572 33.5107C24.6601 31.9123 27.4521 30.7258 29.2891 31.249C31.1234 31.7718 39.2099 39.5196 39.2363 39.5449L49.7354 35.1211C64.656 50.0543 52.4989 67.9999 33.71 68H0V35.1211L12.1572 40.0986C12.1572 40.0986 13.2194 38.9922 14.9209 38.9922C16.6222 38.9923 15.8668 40.0446 17.126 40.0986C18.3851 40.1527 18.3384 40.0441 19.3926 40.2959C20.4467 40.5477 20.9031 41.8069 20.9033 42.5625C20.9033 43.3181 21.9114 43.0666 22.667 43.5703C23.592 45.3572 24.2259 46.1107 25.9727 46.1328C27.7163 46.1547 29.2829 48.3857 29.2891 48.3945C30.2225 49.6146 33.2442 48.3554 31.499 46.7354C31.4632 46.7097 27.6282 43.9675 27.0781 43.417C26.5257 42.8639 27.0785 41.7576 28.1836 42.3105C29.2888 42.8636 32.052 45.0765 33.1572 46.1826C34.2623 47.2884 35.9199 45.6296 34.8154 44.5234C33.7103 43.4174 30.6005 40.8399 29.8418 40.0986C29.0836 39.3578 30.1722 38.2391 30.9463 38.9922C31.7173 39.7428 35.8871 43.3883 35.9199 43.417C37.7773 45.0814 39.5404 42.5634 38.1309 41.2051C33.1573 37.8866 30.7257 33.4959 28.459 32.9922C26.1924 32.4889 23.8716 35.857 20.9033 36.0146C17.9352 36.1721 17.0286 33.6445 18.1338 31.9854C19.2341 30.3336 23.3843 26.9786 23.4219 26.9482C23.3701 26.9578 17.6536 28.0132 14.3682 27.9307C8.29355 27.778 0.31543 21.25 0.31543 21.25V0H34.8496ZM41.5537 40.7002H41.54C41.5312 40.7004 41.5181 40.7007 41.502 40.7012C41.4692 40.702 41.4223 40.7035 41.3662 40.7061C41.2535 40.7112 41.1011 40.7204 40.9463 40.7373C40.7924 40.7542 40.631 40.7794 40.501 40.8164C40.4363 40.8348 40.3743 40.8569 40.3242 40.8857C40.2764 40.9133 40.2245 40.9556 40.2021 41.0186L40.1973 41.0322L40.1963 41.0469C40.1446 42.1396 40.0445 43.0472 39.6719 43.7832C39.3027 44.5122 38.6594 45.0842 37.4932 45.4902L37.4521 45.5049L37.4346 45.5439C36.9738 46.5614 36.5704 47.2467 36.0283 47.6748C35.491 48.0991 34.8034 48.2811 33.75 48.2559L33.6924 48.2539L33.6621 48.3037C33.155 49.1335 32.6968 49.6522 32.1104 49.9512C31.5232 50.2503 30.7925 50.3371 29.7246 50.2705L29.6816 50.2676L29.6504 50.2969C28.7572 51.12 28.0231 51.5447 27.2109 51.6182C26.3956 51.6918 25.4814 51.4132 24.2227 50.7842L24.1631 50.7549L24.1123 50.7979C23.1324 51.6363 22.3886 52.0281 21.6592 52.0244C20.9294 52.0205 20.1853 51.6212 19.2051 50.7979L19.1855 50.7812L19.1602 50.7764L18.8789 50.7139C18.2476 50.5643 17.7832 50.3753 17.3945 50.085C16.9502 49.7529 16.5949 49.281 16.2061 48.5596L16.1855 48.5205L16.1416 48.5098C15.1609 48.2738 14.5269 47.9747 14.0566 47.5215C13.5852 47.0669 13.2677 46.4476 12.9385 45.5508L12.9141 45.4854H11.7363V58.2773H34.5039C39.0769 58.2772 42.3883 55.7983 43.7891 52.3604C45.1891 48.9238 44.6765 44.5408 41.6338 40.7373L41.6025 40.6992L41.5537 40.7002ZM23.8965 47.0742C23.3847 46.6218 22.603 46.67 22.1504 47.1816L20.8711 48.6289C20.4186 49.1406 20.466 49.9224 20.9775 50.375C21.4894 50.8276 22.272 50.7794 22.7246 50.2676L24.0039 48.8203C24.4562 48.3085 24.4082 47.5267 23.8965 47.0742ZM25.4375 47.0967C25.2588 48.2215 25.2548 48.9356 25.4375 49.8662C26.1474 50.4304 26.3916 50.5413 27.4521 50.3701C28.1074 50.2066 28.1524 49.7337 28.207 48.8594C27.0733 47.8235 26.4721 47.471 25.4375 47.0967ZM22.0449 44.1377C21.4726 43.6316 20.5978 43.6855 20.0918 44.2578L17.8154 46.832C17.3094 47.4044 17.3632 48.2791 17.9355 48.7852C18.5079 49.2912 19.3826 49.2374 19.8887 48.665L22.165 46.0908C22.6711 45.5185 22.6171 44.6438 22.0449 44.1377ZM19.6113 41.4961C18.9667 40.9263 17.982 40.9873 17.4121 41.6318L14.8594 44.5186C14.2895 45.1631 14.3498 46.1477 14.9941 46.7178C15.6387 47.2877 16.6234 47.2275 17.1934 46.583L19.7461 43.6953C20.316 43.0507 20.256 42.0661 19.6113 41.4961ZM15.5498 40.4502C14.9545 39.9238 14.045 39.98 13.5186 40.5752L12.1816 42.0869C11.6552 42.6823 11.7112 43.5917 12.3066 44.1182C12.902 44.6444 13.8115 44.5885 14.3379 43.9932L15.6738 42.4814C16.2002 41.8861 16.145 40.9767 15.5498 40.4502ZM11.4854 23.1699C11.4854 24.0487 11.5461 24.8361 11.9443 25.4004C12.3494 25.974 13.0823 26.2929 14.3555 26.293C14.9983 26.2929 15.7516 26.1397 16.5664 25.9365C17.3875 25.7318 18.265 25.4776 19.1816 25.2646C21.0109 24.8397 22.937 24.5954 24.6445 25.2783C28.115 26.6665 27.4187 26.5386 30.1953 27.2959C30.5287 27.4263 31.0596 27.4893 31.6797 27.5049C32.31 27.5207 33.0461 27.4889 33.7881 27.4258C35.2697 27.2997 36.7905 27.0467 37.5576 26.791C38.3148 26.5386 39.3397 26.1555 40.1748 25.3848C41.0142 24.61 41.6553 23.4496 41.6553 21.6592V16.874C41.6552 14.5741 40.6313 12.7185 38.9072 11.4414C37.1858 10.1665 34.7707 9.47077 31.9854 9.4707H11.4854V23.1699Z" fill="white"/>
</svg>
